<svg width="64" height="64" viewBox="0 0 64 64" fill="none" xmlns="http://www.w3.org/2000/svg">
<rect x="0.5" y="0.5" width="63" height="63" rx="2.5" stroke="#111111"/>
<g clip-path="url(#clip0_1173_23932)">
<path fill-rule="evenodd" clip-rule="evenodd" d="M17.5896 33.1708L47.3406 32.8437C47.8929 32.8377 48.3356 32.3851 48.3296 31.8328C48.3235 31.2806 47.8709 30.8378 47.3186 30.8439L17.4223 31.1725L29.002 18.8203C29.3798 18.4174 29.3593 17.7845 28.9564 17.4068C28.5535 17.0291 27.9207 17.0495 27.5429 17.4524L14.3605 31.5143C13.9828 31.9172 14.0032 32.55 14.4061 32.9277L29.1106 46.7127C29.5135 47.0904 30.1463 47.07 30.5241 46.6671C30.9018 46.2641 30.8814 45.6313 30.4784 45.2536L17.5896 33.1708Z" fill="#111111"/>
</g>
<defs>
<clipPath id="clip0_1173_23932">
<rect width="30" height="30" fill="white" transform="matrix(-0.707107 -0.707107 -0.707107 0.707107 53.2148 32)"/>
</clipPath>
</defs>
</svg>
