<svg width="110" height="110" viewBox="0 0 110 110" fill="none" xmlns="http://www.w3.org/2000/svg">
<g filter="url(#filter0_d_1173_22807)">
<path fill-rule="evenodd" clip-rule="evenodd" d="M68.4351 38.9802C68.8257 38.5897 68.8257 37.9565 68.4351 37.566C68.0446 37.1755 67.4114 37.1755 67.0209 37.566L55 49.5869L42.9791 37.566C42.5886 37.1755 41.9554 37.1755 41.5649 37.566C41.1743 37.9565 41.1743 38.5897 41.5649 38.9802L53.5858 51.0011L41.5651 63.0218C41.1746 63.4124 41.1746 64.0455 41.5651 64.436C41.9556 64.8266 42.5888 64.8266 42.9793 64.436L55 52.4153L67.0207 64.436C67.4112 64.8266 68.0444 64.8266 68.4349 64.436C68.8254 64.0455 68.8254 63.4124 68.4349 63.0218L56.4142 51.0011L68.4351 38.9802Z" fill="#C5358C"/>
</g>
<defs>
<filter id="filter0_d_1173_22807" x="-4" y="-4" width="118" height="118" filterUnits="userSpaceOnUse" color-interpolation-filters="sRGB">
<feFlood flood-opacity="0" result="BackgroundImageFix"/>
<feColorMatrix in="SourceAlpha" type="matrix" values="0 0 0 0 0 0 0 0 0 0 0 0 0 0 0 0 0 0 127 0" result="hardAlpha"/>
<feOffset dy="4"/>
<feGaussianBlur stdDeviation="20.5"/>
<feComposite in2="hardAlpha" operator="out"/>
<feColorMatrix type="matrix" values="0 0 0 0 0 0 0 0 0 0 0 0 0 0 0 0 0 0 0.05 0"/>
<feBlend mode="normal" in2="BackgroundImageFix" result="effect1_dropShadow_1173_22807"/>
<feBlend mode="normal" in="SourceGraphic" in2="effect1_dropShadow_1173_22807" result="shape"/>
</filter>
</defs>
</svg>
