<svg width="64" height="64" viewBox="0 0 64 64" fill="none" xmlns="http://www.w3.org/2000/svg">
<rect x="-0.5" y="0.5" width="63" height="63" rx="2.5" transform="matrix(-1 0 0 1 63 0)" stroke="#111111"/>
<g clip-path="url(#clip0_1173_23933)">
<path fill-rule="evenodd" clip-rule="evenodd" d="M46.4104 33.1708L16.6594 32.8437C16.1071 32.8377 15.6644 32.3851 15.6704 31.8328C15.6765 31.2806 16.1291 30.8378 16.6814 30.8439L46.5777 31.1725L34.998 18.8203C34.6202 18.4174 34.6407 17.7845 35.0436 17.4068C35.4465 17.0291 36.0793 17.0495 36.4571 17.4524L49.6395 31.5143C50.0172 31.9172 49.9968 32.55 49.5939 32.9277L34.8894 46.7127C34.4865 47.0904 33.8537 47.07 33.4759 46.6671C33.0982 46.2641 33.1186 45.6313 33.5216 45.2536L46.4104 33.1708Z" fill="#111111"/>
</g>
<defs>
<clipPath id="clip0_1173_23933">
<rect width="30" height="30" fill="white" transform="translate(10.7852 32) rotate(-45)"/>
</clipPath>
</defs>
</svg>
