<svg width="34" height="34" viewBox="0 0 34 34" fill="none" xmlns="http://www.w3.org/2000/svg">
<g clip-path="url(#clip0_1173_23777)">
<path fill-rule="evenodd" clip-rule="evenodd" d="M27.2234 18.0666L3.03212 17.8613C2.57987 17.8575 2.21769 17.4853 2.22618 17.0331C2.23455 16.5874 2.6002 16.2316 3.04591 16.2354L27.3722 16.4418L18.0364 6.43038C17.7285 6.10023 17.7466 5.58301 18.0767 5.27514C18.4069 4.96727 18.9241 4.98533 19.232 5.31548L29.7305 16.5738C30.1071 16.9777 30.085 17.6104 29.6811 17.9871L17.7597 29.104C17.4329 29.4087 16.921 29.3908 16.6163 29.0641C16.3116 28.7373 16.3295 28.2254 16.6562 27.9207L27.2234 18.0666Z" fill="white"/>
</g>
<defs>
<clipPath id="clip0_1173_23777">
<rect width="24" height="24" fill="white" transform="translate(0 17) rotate(-45)"/>
</clipPath>
</defs>
</svg>
